<?xml version="1.0" encoding="UTF-8" standalone="no"?>
<!DOCTYPE svg PUBLIC "-//W3C//DTD SVG 1.1//EN"
 "http://www.w3.org/Graphics/SVG/1.1/DTD/svg11.dtd">
<!-- Generated by graphviz version 2.47.0 (20210316.0004)
 -->
<!-- Title: dependencies Pages: 1 -->
<svg width="1134pt" height="284pt"
 viewBox="0.00 0.00 1134.00 284.00" xmlns="http://www.w3.org/2000/svg" xmlns:xlink="http://www.w3.org/1999/xlink">
<g id="graph0" class="graph" transform="scale(1 1) rotate(0) translate(4 280)">
<title>dependencies</title>
<polygon fill="white" stroke="transparent" points="-4,4 -4,-280 1130,-280 1130,4 -4,4"/>
<text text-anchor="start" x="542.01" y="-42.4" font-family="Times-12" font-weight="bold" font-size="14.00">Legend</text>
<polygon fill="#ffffb3" stroke="transparent" points="329,-10 329,-30 349,-30 349,-10 329,-10"/>
<text text-anchor="start" x="352.63" y="-15.4" font-family="Times-12" font-size="14.00"> &#160;Declarations</text>
<polygon fill="#8dd3c7" stroke="transparent" points="442,-10 442,-30 462,-30 462,-10 442,-10"/>
<text text-anchor="start" x="465.73" y="-15.4" font-family="Times-12" font-size="14.00"> &#160;Module</text>
<polygon fill="#80b1d3" stroke="transparent" points="528,-10 528,-30 548,-30 548,-10 528,-10"/>
<text text-anchor="start" x="551.78" y="-15.4" font-family="Times-12" font-size="14.00"> &#160;Bootstrap</text>
<polygon fill="#fdb462" stroke="transparent" points="625,-10 625,-30 645,-30 645,-10 625,-10"/>
<text text-anchor="start" x="648.67" y="-15.4" font-family="Times-12" font-size="14.00"> &#160;Providers</text>
<polygon fill="#fb8072" stroke="transparent" points="721,-10 721,-30 741,-30 741,-10 721,-10"/>
<text text-anchor="start" x="744.73" y="-15.4" font-family="Times-12" font-size="14.00"> &#160;Exports</text>
<g id="clust1" class="cluster">
<title>cluster_AppModule</title>
<polygon fill="none" stroke="black" stroke-dasharray="1,5" points="8,-70 8,-268 1118,-268 1118,-70 8,-70"/>
</g>
<g id="clust10" class="cluster">
<title>cluster_AppModule_imports</title>
<polygon fill="none" stroke="black" points="966,-78 966,-130 1110,-130 1110,-78 966,-78"/>
</g>
<g id="clust12" class="cluster">
<title>cluster_AppModule_bootstrap</title>
<polygon fill="none" stroke="black" points="482,-208 482,-260 606,-260 606,-208 482,-208"/>
</g>
<g id="clust2" class="cluster">
<title>cluster_AppModule_declarations</title>
<polygon fill="none" stroke="black" points="16,-78 16,-130 958,-130 958,-78 16,-78"/>
</g>
<!-- AppComponent -->
<g id="node1" class="node">
<title>AppComponent</title>
<polygon fill="#ffffb3" stroke="black" points="949.94,-122 844.06,-122 844.06,-86 949.94,-86 949.94,-122"/>
<text text-anchor="middle" x="897" y="-99.8" font-family="Times,serif" font-size="14.00">AppComponent</text>
</g>
<!-- AppModule -->
<g id="node8" class="node">
<title>AppModule</title>
<polygon fill="#8dd3c7" stroke="black" points="585.66,-187 582.66,-191 561.66,-191 558.66,-187 502.34,-187 502.34,-151 585.66,-151 585.66,-187"/>
<text text-anchor="middle" x="544" y="-164.8" font-family="Times,serif" font-size="14.00">AppModule</text>
</g>
<!-- AppComponent&#45;&gt;AppModule -->
<g id="edge1" class="edge">
<title>AppComponent&#45;&gt;AppModule</title>
<path fill="none" stroke="black" d="M897,-122.11C897,-141.34 897,-169 897,-169 897,-169 595.88,-169 595.88,-169"/>
<polygon fill="black" stroke="black" points="595.88,-165.5 585.88,-169 595.88,-172.5 595.88,-165.5"/>
</g>
<!-- CommentsComponent -->
<g id="node2" class="node">
<title>CommentsComponent</title>
<polygon fill="#ffffb3" stroke="black" points="826,-122 684,-122 684,-86 826,-86 826,-122"/>
<text text-anchor="middle" x="755" y="-99.8" font-family="Times,serif" font-size="14.00">CommentsComponent</text>
</g>
<!-- CommentsComponent&#45;&gt;AppModule -->
<g id="edge2" class="edge">
<title>CommentsComponent&#45;&gt;AppModule</title>
<path fill="none" stroke="black" d="M755,-122.03C755,-138.4 755,-160 755,-160 755,-160 595.69,-160 595.69,-160"/>
<polygon fill="black" stroke="black" points="595.69,-156.5 585.69,-160 595.69,-163.5 595.69,-156.5"/>
</g>
<!-- HomeComponent -->
<g id="node3" class="node">
<title>HomeComponent</title>
<polygon fill="#ffffb3" stroke="black" points="665.55,-122 550.45,-122 550.45,-86 665.55,-86 665.55,-122"/>
<text text-anchor="middle" x="608" y="-99.8" font-family="Times,serif" font-size="14.00">HomeComponent</text>
</g>
<!-- HomeComponent&#45;&gt;AppModule -->
<g id="edge3" class="edge">
<title>HomeComponent&#45;&gt;AppModule</title>
<path fill="none" stroke="black" d="M568.03,-122.11C568.03,-122.11 568.03,-140.99 568.03,-140.99"/>
<polygon fill="black" stroke="black" points="564.53,-140.99 568.03,-150.99 571.53,-140.99 564.53,-140.99"/>
</g>
<!-- PostComponent -->
<g id="node4" class="node">
<title>PostComponent</title>
<polygon fill="#ffffb3" stroke="black" points="532.95,-122 427.05,-122 427.05,-86 532.95,-86 532.95,-122"/>
<text text-anchor="middle" x="480" y="-99.8" font-family="Times,serif" font-size="14.00">PostComponent</text>
</g>
<!-- PostComponent&#45;&gt;AppModule -->
<g id="edge4" class="edge">
<title>PostComponent&#45;&gt;AppModule</title>
<path fill="none" stroke="black" d="M517.45,-122.11C517.45,-122.11 517.45,-140.99 517.45,-140.99"/>
<polygon fill="black" stroke="black" points="513.95,-140.99 517.45,-150.99 520.95,-140.99 513.95,-140.99"/>
</g>
<!-- ProductsComponent -->
<g id="node5" class="node">
<title>ProductsComponent</title>
<polygon fill="#ffffb3" stroke="black" points="409.33,-122 278.67,-122 278.67,-86 409.33,-86 409.33,-122"/>
<text text-anchor="middle" x="344" y="-99.8" font-family="Times,serif" font-size="14.00">ProductsComponent</text>
</g>
<!-- ProductsComponent&#45;&gt;AppModule -->
<g id="edge5" class="edge">
<title>ProductsComponent&#45;&gt;AppModule</title>
<path fill="none" stroke="black" d="M344,-122.03C344,-138.4 344,-160 344,-160 344,-160 492.07,-160 492.07,-160"/>
<polygon fill="black" stroke="black" points="492.07,-163.5 502.07,-160 492.07,-156.5 492.07,-163.5"/>
</g>
<!-- TodoComponent -->
<g id="node6" class="node">
<title>TodoComponent</title>
<polygon fill="#ffffb3" stroke="black" points="260.39,-122 149.61,-122 149.61,-86 260.39,-86 260.39,-122"/>
<text text-anchor="middle" x="205" y="-99.8" font-family="Times,serif" font-size="14.00">TodoComponent</text>
</g>
<!-- TodoComponent&#45;&gt;AppModule -->
<g id="edge6" class="edge">
<title>TodoComponent&#45;&gt;AppModule</title>
<path fill="none" stroke="black" d="M205,-122.11C205,-141.34 205,-169 205,-169 205,-169 492.09,-169 492.09,-169"/>
<polygon fill="black" stroke="black" points="492.09,-172.5 502.09,-169 492.09,-165.5 492.09,-172.5"/>
</g>
<!-- UserComponent -->
<g id="node7" class="node">
<title>UserComponent</title>
<polygon fill="#ffffb3" stroke="black" points="131.76,-122 24.24,-122 24.24,-86 131.76,-86 131.76,-122"/>
<text text-anchor="middle" x="78" y="-99.8" font-family="Times,serif" font-size="14.00">UserComponent</text>
</g>
<!-- UserComponent&#45;&gt;AppModule -->
<g id="edge7" class="edge">
<title>UserComponent&#45;&gt;AppModule</title>
<path fill="none" stroke="black" d="M78,-122.29C78,-144.21 78,-178 78,-178 78,-178 492.24,-178 492.24,-178"/>
<polygon fill="black" stroke="black" points="492.24,-181.5 502.24,-178 492.24,-174.5 492.24,-181.5"/>
</g>
<!-- AppComponent  -->
<g id="node10" class="node">
<title>AppComponent </title>
<polygon fill="#80b1d3" stroke="black" points="598.44,-252 489.56,-252 489.56,-216 598.44,-216 598.44,-252"/>
<text text-anchor="middle" x="544" y="-229.8" font-family="Times,serif" font-size="14.00">AppComponent </text>
</g>
<!-- AppModule&#45;&gt;AppComponent  -->
<g id="edge9" class="edge">
<title>AppModule&#45;&gt;AppComponent </title>
<path fill="none" stroke="black" stroke-dasharray="1,5" d="M544,-187.11C544,-187.11 544,-205.99 544,-205.99"/>
<polygon fill="black" stroke="black" points="540.5,-205.99 544,-215.99 547.5,-205.99 540.5,-205.99"/>
</g>
<!-- AppRoutingModule -->
<g id="node9" class="node">
<title>AppRoutingModule</title>
<polygon fill="#8dd3c7" stroke="black" points="1102.27,-122 1099.27,-126 1078.27,-126 1075.27,-122 973.73,-122 973.73,-86 1102.27,-86 1102.27,-122"/>
<text text-anchor="middle" x="1038" y="-99.8" font-family="Times,serif" font-size="14.00">AppRoutingModule</text>
</g>
<!-- AppRoutingModule&#45;&gt;AppModule -->
<g id="edge8" class="edge">
<title>AppRoutingModule&#45;&gt;AppModule</title>
<path fill="none" stroke="black" d="M1038,-122.29C1038,-144.21 1038,-178 1038,-178 1038,-178 595.69,-178 595.69,-178"/>
<polygon fill="black" stroke="black" points="595.69,-174.5 585.69,-178 595.69,-181.5 595.69,-174.5"/>
</g>
</g>
</svg>
