<?xml version="1.0" encoding="UTF-8" standalone="no"?>
<!DOCTYPE svg PUBLIC "-//W3C//DTD SVG 1.1//EN"
 "http://www.w3.org/Graphics/SVG/1.1/DTD/svg11.dtd">
<!-- Generated by graphviz version 2.47.0 (20210316.0004)
 -->
<!-- Title: dependencies Pages: 1 -->
<svg width="1134pt" height="284pt"
 viewBox="0.00 0.00 1134.00 284.00" xmlns="http://www.w3.org/2000/svg" xmlns:xlink="http://www.w3.org/1999/xlink">
<g id="graph0" class="graph" transform="scale(1 1) rotate(0) translate(4 280)">
<title>dependencies</title>
<polygon fill="white" stroke="transparent" points="-4,4 -4,-280 1130,-280 1130,4 -4,4"/>
<text text-anchor="start" x="542.01" y="-42.4" font-family="Times-12" font-weight="bold" font-size="14.00">Legend</text>
<polygon fill="#ffffb3" stroke="transparent" points="329,-10 329,-30 349,-30 349,-10 329,-10"/>
<text text-anchor="start" x="352.63" y="-15.4" font-family="Times-12" font-size="14.00"> &#160;Declarations</text>
<polygon fill="#8dd3c7" stroke="transparent" points="442,-10 442,-30 462,-30 462,-10 442,-10"/>
<text text-anchor="start" x="465.73" y="-15.4" font-family="Times-12" font-size="14.00"> &#160;Module</text>
<polygon fill="#80b1d3" stroke="transparent" points="528,-10 528,-30 548,-30 548,-10 528,-10"/>
<text text-anchor="start" x="551.78" y="-15.4" font-family="Times-12" font-size="14.00"> &#160;Bootstrap</text>
<polygon fill="#fdb462" stroke="transparent" points="625,-10 625,-30 645,-30 645,-10 625,-10"/>
<text text-anchor="start" x="648.67" y="-15.4" font-family="Times-12" font-size="14.00"> &#160;Providers</text>
<polygon fill="#fb8072" stroke="transparent" points="721,-10 721,-30 741,-30 741,-10 721,-10"/>
<text text-anchor="start" x="744.73" y="-15.4" font-family="Times-12" font-size="14.00"> &#160;Exports</text>
<g id="clust1" class="cluster">
<title>cluster_AppModule</title>
<polygon fill="none" stroke="black" stroke-dasharray="1,5" points="8,-70 8,-268 1118,-268 1118,-70 8,-70"/>
</g>
<g id="clust2" class="cluster">
<title>cluster_AppModule_declarations</title>
<polygon fill="none" stroke="black" points="168,-78 168,-130 1110,-130 1110,-78 168,-78"/>
</g>
<g id="clust10" class="cluster">
<title>cluster_AppModule_imports</title>
<polygon fill="none" stroke="black" points="16,-78 16,-130 160,-130 160,-78 16,-78"/>
</g>
<g id="clust12" class="cluster">
<title>cluster_AppModule_bootstrap</title>
<polygon fill="none" stroke="black" points="502,-208 502,-260 626,-260 626,-208 502,-208"/>
</g>
<!-- AppComponent -->
<g id="node1" class="node">
<title>AppComponent</title>
<polygon fill="#ffffb3" stroke="black" points="1101.94,-122 996.06,-122 996.06,-86 1101.94,-86 1101.94,-122"/>
<text text-anchor="middle" x="1049" y="-99.8" font-family="Times,serif" font-size="14.00">AppComponent</text>
</g>
<!-- AppModule -->
<g id="node8" class="node">
<title>AppModule</title>
<polygon fill="#8dd3c7" stroke="black" points="605.66,-187 602.66,-191 581.66,-191 578.66,-187 522.34,-187 522.34,-151 605.66,-151 605.66,-187"/>
<text text-anchor="middle" x="564" y="-164.8" font-family="Times,serif" font-size="14.00">AppModule</text>
</g>
<!-- AppComponent&#45;&gt;AppModule -->
<g id="edge1" class="edge">
<title>AppComponent&#45;&gt;AppModule</title>
<path fill="none" stroke="black" d="M1049,-122.29C1049,-144.21 1049,-178 1049,-178 1049,-178 615.77,-178 615.77,-178"/>
<polygon fill="black" stroke="black" points="615.77,-174.5 605.77,-178 615.77,-181.5 615.77,-174.5"/>
</g>
<!-- CommentsComponent -->
<g id="node2" class="node">
<title>CommentsComponent</title>
<polygon fill="#ffffb3" stroke="black" points="978,-122 836,-122 836,-86 978,-86 978,-122"/>
<text text-anchor="middle" x="907" y="-99.8" font-family="Times,serif" font-size="14.00">CommentsComponent</text>
</g>
<!-- CommentsComponent&#45;&gt;AppModule -->
<g id="edge2" class="edge">
<title>CommentsComponent&#45;&gt;AppModule</title>
<path fill="none" stroke="black" d="M907,-122.11C907,-141.34 907,-169 907,-169 907,-169 615.72,-169 615.72,-169"/>
<polygon fill="black" stroke="black" points="615.72,-165.5 605.72,-169 615.72,-172.5 615.72,-165.5"/>
</g>
<!-- HomeComponent -->
<g id="node3" class="node">
<title>HomeComponent</title>
<polygon fill="#ffffb3" stroke="black" points="817.55,-122 702.45,-122 702.45,-86 817.55,-86 817.55,-122"/>
<text text-anchor="middle" x="760" y="-99.8" font-family="Times,serif" font-size="14.00">HomeComponent</text>
</g>
<!-- HomeComponent&#45;&gt;AppModule -->
<g id="edge3" class="edge">
<title>HomeComponent&#45;&gt;AppModule</title>
<path fill="none" stroke="black" d="M760,-122.03C760,-138.4 760,-160 760,-160 760,-160 616.05,-160 616.05,-160"/>
<polygon fill="black" stroke="black" points="616.05,-156.5 606.05,-160 616.05,-163.5 616.05,-156.5"/>
</g>
<!-- PostComponent -->
<g id="node4" class="node">
<title>PostComponent</title>
<polygon fill="#ffffb3" stroke="black" points="684.95,-122 579.05,-122 579.05,-86 684.95,-86 684.95,-122"/>
<text text-anchor="middle" x="632" y="-99.8" font-family="Times,serif" font-size="14.00">PostComponent</text>
</g>
<!-- PostComponent&#45;&gt;AppModule -->
<g id="edge4" class="edge">
<title>PostComponent&#45;&gt;AppModule</title>
<path fill="none" stroke="black" d="M592.55,-122.11C592.55,-122.11 592.55,-140.99 592.55,-140.99"/>
<polygon fill="black" stroke="black" points="589.05,-140.99 592.55,-150.99 596.05,-140.99 589.05,-140.99"/>
</g>
<!-- ProductsComponent -->
<g id="node5" class="node">
<title>ProductsComponent</title>
<polygon fill="#ffffb3" stroke="black" points="561.33,-122 430.67,-122 430.67,-86 561.33,-86 561.33,-122"/>
<text text-anchor="middle" x="496" y="-99.8" font-family="Times,serif" font-size="14.00">ProductsComponent</text>
</g>
<!-- ProductsComponent&#45;&gt;AppModule -->
<g id="edge5" class="edge">
<title>ProductsComponent&#45;&gt;AppModule</title>
<path fill="none" stroke="black" d="M541.67,-122.11C541.67,-122.11 541.67,-140.99 541.67,-140.99"/>
<polygon fill="black" stroke="black" points="538.17,-140.99 541.67,-150.99 545.17,-140.99 538.17,-140.99"/>
</g>
<!-- TodoComponent -->
<g id="node6" class="node">
<title>TodoComponent</title>
<polygon fill="#ffffb3" stroke="black" points="412.39,-122 301.61,-122 301.61,-86 412.39,-86 412.39,-122"/>
<text text-anchor="middle" x="357" y="-99.8" font-family="Times,serif" font-size="14.00">TodoComponent</text>
</g>
<!-- TodoComponent&#45;&gt;AppModule -->
<g id="edge6" class="edge">
<title>TodoComponent&#45;&gt;AppModule</title>
<path fill="none" stroke="black" d="M357,-122.03C357,-138.4 357,-160 357,-160 357,-160 512.11,-160 512.11,-160"/>
<polygon fill="black" stroke="black" points="512.11,-163.5 522.11,-160 512.11,-156.5 512.11,-163.5"/>
</g>
<!-- UserComponent -->
<g id="node7" class="node">
<title>UserComponent</title>
<polygon fill="#ffffb3" stroke="black" points="283.76,-122 176.24,-122 176.24,-86 283.76,-86 283.76,-122"/>
<text text-anchor="middle" x="230" y="-99.8" font-family="Times,serif" font-size="14.00">UserComponent</text>
</g>
<!-- UserComponent&#45;&gt;AppModule -->
<g id="edge7" class="edge">
<title>UserComponent&#45;&gt;AppModule</title>
<path fill="none" stroke="black" d="M230,-122.11C230,-141.34 230,-169 230,-169 230,-169 512.04,-169 512.04,-169"/>
<polygon fill="black" stroke="black" points="512.04,-172.5 522.04,-169 512.04,-165.5 512.04,-172.5"/>
</g>
<!-- AppComponent  -->
<g id="node10" class="node">
<title>AppComponent </title>
<polygon fill="#80b1d3" stroke="black" points="618.44,-252 509.56,-252 509.56,-216 618.44,-216 618.44,-252"/>
<text text-anchor="middle" x="564" y="-229.8" font-family="Times,serif" font-size="14.00">AppComponent </text>
</g>
<!-- AppModule&#45;&gt;AppComponent  -->
<g id="edge9" class="edge">
<title>AppModule&#45;&gt;AppComponent </title>
<path fill="none" stroke="black" stroke-dasharray="1,5" d="M564,-187.11C564,-187.11 564,-205.99 564,-205.99"/>
<polygon fill="black" stroke="black" points="560.5,-205.99 564,-215.99 567.5,-205.99 560.5,-205.99"/>
</g>
<!-- AppRoutingModule -->
<g id="node9" class="node">
<title>AppRoutingModule</title>
<polygon fill="#8dd3c7" stroke="black" points="152.27,-122 149.27,-126 128.27,-126 125.27,-122 23.73,-122 23.73,-86 152.27,-86 152.27,-122"/>
<text text-anchor="middle" x="88" y="-99.8" font-family="Times,serif" font-size="14.00">AppRoutingModule</text>
</g>
<!-- AppRoutingModule&#45;&gt;AppModule -->
<g id="edge8" class="edge">
<title>AppRoutingModule&#45;&gt;AppModule</title>
<path fill="none" stroke="black" d="M88,-122.29C88,-144.21 88,-178 88,-178 88,-178 512.18,-178 512.18,-178"/>
<polygon fill="black" stroke="black" points="512.18,-181.5 522.18,-178 512.18,-174.5 512.18,-181.5"/>
</g>
</g>
</svg>
